<svg aria-hidden="true" style="position: absolute; width: 0; height: 0; overflow: hidden;" version="1.1" xmlns="http://www.w3.org/2000/svg" xmlns:xlink="http://www.w3.org/1999/xlink">
<defs>
<symbol id="icon-arrow" viewBox="0 0 56 32">
<path d="M30.603 21.134c-0.341 0.344-0.746 0.616-1.193 0.803s-0.926 0.282-1.41 0.282-0.963-0.096-1.41-0.282c-0.447-0.186-0.852-0.459-1.193-0.803l-16.793-16.83c-0.341-0.344-0.746-0.616-1.193-0.803s-0.926-0.282-1.41-0.282c-0.484 0-0.963 0.096-1.41 0.282s-0.852 0.459-1.193 0.803c-0.683 0.687-1.066 1.616-1.066 2.585s0.383 1.898 1.066 2.585l16.83 16.83c2.062 2.060 4.858 3.217 7.773 3.217s5.711-1.157 7.773-3.217l16.83-16.83c0.677-0.683 1.059-1.605 1.063-2.567 0.003-0.483-0.090-0.961-0.272-1.408s-0.451-0.853-0.791-1.196c-0.341-0.344-0.746-0.616-1.194-0.803s-0.926-0.282-1.41-0.282-0.963 0.096-1.41 0.282c-0.447 0.186-0.852 0.459-1.193 0.803l-16.793 16.83z"></path>
</symbol>
<symbol id="icon-arrow-down" viewBox="0 0 32 32">
<path d="M16.849 18.838c-0.203 0.205-0.445 0.367-0.711 0.478s-0.552 0.168-0.84 0.168-0.574-0.057-0.84-0.168c-0.266-0.111-0.508-0.274-0.711-0.478l-10.007-10.029c-0.203-0.205-0.445-0.367-0.711-0.478s-0.552-0.168-0.84-0.168c-0.288 0-0.574 0.057-0.84 0.168s-0.508 0.273-0.711 0.478c-0.407 0.409-0.635 0.963-0.635 1.54s0.228 1.131 0.635 1.54l10.029 10.029c1.229 1.228 2.895 1.917 4.632 1.917s3.403-0.689 4.632-1.917l10.029-10.029c0.404-0.407 0.631-0.956 0.634-1.529 0.002-0.288-0.053-0.573-0.162-0.839s-0.269-0.508-0.471-0.712c-0.203-0.205-0.445-0.367-0.711-0.478s-0.552-0.168-0.84-0.168-0.574 0.057-0.84 0.168c-0.266 0.111-0.508 0.273-0.711 0.478l-10.007 10.029z"></path>
</symbol>
<symbol id="icon-facebook" viewBox="0 0 14 32">
<path d="M11.804 0.854c0.32 0 0.64 0 1.28 0v4.8c-0.32 0-0.96 0-1.6 0s-1.28 0-1.6 0.32c-0.32 0.32-0.32 0.64-0.32 1.387 0 0.64 0 1.067 0 1.707h3.52v4.053h-3.52v17.6h-5.44v-17.707h-2.88v-4.053h2.88v-1.387c0-2.347 0.32-4.053 0.96-4.8 0.96-1.387 2.88-2.027 5.76-2.027 0.32 0.107 0.64 0.107 0.96 0.107z"></path>
</symbol>
<symbol id="icon-instagram" viewBox="0 0 32 32">
<path d="M31.261 9.707c-0.019-1.289-0.258-2.568-0.715-3.774-0.8-2.059-2.429-3.687-4.492-4.484-1.192-0.448-2.453-0.688-3.729-0.715-1.641-0.073-2.161-0.094-6.327-0.094s-4.7 0-6.329 0.094c-1.274 0.027-2.535 0.267-3.727 0.715-2.062 0.797-3.693 2.425-4.492 4.484-0.449 1.19-0.691 2.449-0.715 3.721-0.073 1.64-0.096 2.159-0.096 6.318s0 4.69 0.096 6.318c0.026 1.274 0.266 2.531 0.715 3.725 0.8 2.057 2.429 3.685 4.493 4.482 1.187 0.463 2.448 0.726 3.727 0.766 1.643 0.073 2.163 0.095 6.329 0.095s4.7 0 6.329-0.095c1.274-0.026 2.535-0.266 3.729-0.714 2.062-0.799 3.692-2.427 4.492-4.484 0.449-1.192 0.689-2.449 0.715-3.725 0.073-1.638 0.096-2.158 0.096-6.318-0.003-4.159-0.003-4.687-0.099-6.317zM15.988 23.837c-4.357 0-7.886-3.524-7.886-7.873s3.53-7.873 7.886-7.873c4.354 0 7.886 3.524 7.886 7.873s-3.533 7.873-7.886 7.873zM24.188 9.635c-1.018 0-1.839-0.821-1.839-1.836s0.82-1.836 1.839-1.836c1.015 0 1.837 0.821 1.837 1.836s-0.822 1.836-1.837 1.836z"></path>
</symbol>
<symbol id="icon-twitter" viewBox="0 0 38 32">
<path d="M37.647 3.621c-1.4 0.614-2.892 1.021-4.447 1.219 1.6-0.955 2.821-2.456 3.395-4.266-1.492 0.889-3.139 1.518-4.894 1.868-1.416-1.508-3.435-2.442-5.638-2.442-4.273 0-7.713 3.468-7.713 7.72 0 0.612 0.052 1.2 0.179 1.76-6.416-0.313-12.094-3.388-15.908-8.073-0.666 1.155-1.056 2.478-1.056 3.901 0 2.673 1.376 5.042 3.428 6.414-1.24-0.024-2.456-0.384-3.487-0.951 0 0.024 0 0.054 0 0.085 0 3.751 2.675 6.866 6.184 7.584-0.628 0.172-1.313 0.254-2.024 0.254-0.494 0-0.993-0.028-1.461-0.132 1 3.056 3.838 5.304 7.212 5.376-2.626 2.054-5.96 3.292-9.569 3.292-0.633 0-1.24-0.028-1.847-0.106 3.419 2.205 7.471 3.464 11.84 3.464 14.202 0 21.967-11.765 21.967-21.962 0-0.341-0.012-0.671-0.028-0.998 1.532-1.087 2.819-2.445 3.868-4.007z"></path>
</symbol>
<symbol id="icon-money" viewBox="0 0 32 32">
<path fill="#fd9222" style="fill: var(--color1, #fd9222)" d="M16 0.762c-8.381 0-15.238 6.857-15.238 15.238s6.857 15.238 15.238 15.238c8.381 0 15.238-6.857 15.238-15.238s-6.857-15.238-15.238-15.238zM16 28.19c-6.705 0-12.19-5.486-12.19-12.19s5.486-12.191 12.19-12.191c6.705 0 12.191 5.486 12.191 12.191s-5.486 12.19-12.191 12.19z"></path>
<path fill="#fd9222" style="fill: var(--color1, #fd9222)" d="M17.981 14.476h-3.962c-0.762 0-1.371-0.61-1.371-1.371s0.61-1.371 1.371-1.371h5.638c0.914 0 1.524-0.61 1.524-1.524s-0.61-1.524-1.524-1.524h-2.133v-1.371c0-0.914-0.61-1.524-1.524-1.524s-1.524 0.61-1.524 1.524v1.371h-0.457c-2.438 0-4.419 1.981-4.419 4.419s1.981 4.419 4.419 4.419h3.809c0.762 0 1.371 0.61 1.371 1.371s-0.61 1.371-1.371 1.371h-5.638c-0.914 0-1.524 0.61-1.524 1.524s0.61 1.524 1.524 1.524h2.286v1.371c0 0.914 0.61 1.524 1.524 1.524s1.524-0.61 1.524-1.524v-1.371h0.457c2.438 0 4.419-1.981 4.419-4.419s-1.981-4.419-4.419-4.419z"></path>
</symbol>
<symbol id="icon-chocolate-1" viewBox="0 0 32 32">
<path fill="#111" style="fill: var(--color2, #111)" d="M13.511 0.473l8.602 8.613 0.091-0.091c0.18-0.176 0.422-0.276 0.674-0.279s0.496 0.092 0.68 0.264l0.998 0.998c0.349 0.349 0.36 0.88 0.095 1.25l-0.005 0.008-0.163 0.219 7.040 7.040c0.629 0.629 0.629 1.634 0 2.263l-10.777 10.777c-0.629 0.629-1.634 0.629-2.263 0l-5.082-5.082c-0.084 0.106-0.19 0.194-0.311 0.256s-0.253 0.099-0.389 0.106c-0.136 0.008-0.271-0.014-0.398-0.062s-0.242-0.123-0.338-0.22l-2.971-2.971c-0.176-0.18-0.276-0.421-0.279-0.674s0.092-0.496 0.264-0.68l0.007-0.008 0.088-0.087-8.602-8.602c-0.629-0.629-0.629-1.634 0-2.263l10.777-10.777c0.629-0.629 1.634-0.629 2.263 0v0.001zM21.034 10.164l-2.007-2.006c-0.063-0.065-0.139-0.117-0.222-0.152s-0.173-0.053-0.264-0.053-0.18 0.018-0.264 0.053c-0.084 0.035-0.159 0.087-0.222 0.152l-4.091 4.091c-0.065 0.064-0.116 0.141-0.151 0.225s-0.053 0.175-0.053 0.266 0.018 0.182 0.053 0.266c0.035 0.084 0.087 0.161 0.151 0.225l1.999 1.999 0.697-0.697-1.789-1.789 3.669-3.68 1.793 1.799 0.701-0.701zM15.233 15.961l-2.005-2.005c-0.063-0.065-0.139-0.117-0.222-0.152s-0.173-0.053-0.264-0.053-0.18 0.018-0.264 0.053c-0.083 0.035-0.159 0.087-0.222 0.152l-4.103 4.103c-0.274 0.263-0.274 0.697 0 0.971l2.002 2.002 0.704-0.704-1.794-1.787 3.68-3.669 1.787 1.786 0.699-0.698zM7.797 7.078l4.091 4.091c0.274 0.274 0.709 0.274 0.971-0.011l4.091-4.091c0.065-0.062 0.117-0.136 0.152-0.219s0.054-0.171 0.054-0.261h0.011c0-0.171-0.069-0.354-0.206-0.491l-4.091-4.091c-0.064-0.065-0.141-0.117-0.225-0.152s-0.175-0.053-0.266-0.053c-0.091 0-0.182 0.018-0.266 0.053s-0.161 0.087-0.225 0.152l-4.091 4.103c-0.274 0.263-0.274 0.697 0 0.971zM2.003 12.873l4.091 4.091c0.274 0.274 0.709 0.274 0.971 0l4.091-4.091c0.066-0.063 0.119-0.14 0.154-0.224s0.053-0.176 0.051-0.267h0.011c0-0.183-0.069-0.354-0.206-0.491l-4.091-4.091c-0.063-0.065-0.139-0.117-0.222-0.152s-0.173-0.054-0.264-0.054c-0.091 0-0.18 0.018-0.264 0.054s-0.159 0.087-0.222 0.152l-4.103 4.103c-0.274 0.263-0.274 0.697 0 0.971zM9.926 22.877l2.699 2.701 11.013-14.903-0.749-0.749-12.963 12.951z"></path>
<path fill="#fd9222" style="fill: var(--color1, #fd9222)" d="M13.511 0.473l8.602 8.613 0.091-0.091c0.18-0.176 0.422-0.276 0.674-0.279s0.496 0.092 0.68 0.264l0.998 0.998c0.349 0.349 0.36 0.88 0.095 1.25l-0.005 0.008-0.163 0.219 7.040 7.040c0.629 0.629 0.629 1.634 0 2.263l-10.777 10.777c-0.629 0.629-1.634 0.629-2.263 0l-5.082-5.082c-0.084 0.106-0.19 0.194-0.311 0.256s-0.253 0.099-0.389 0.106c-0.136 0.008-0.271-0.014-0.398-0.062s-0.242-0.123-0.338-0.22l-2.971-2.971c-0.176-0.18-0.276-0.421-0.279-0.674s0.092-0.496 0.264-0.68l0.007-0.008 0.088-0.087-8.602-8.602c-0.629-0.629-0.629-1.634 0-2.263l10.777-10.777c0.629-0.629 1.634-0.629 2.263 0v0.001zM21.034 10.164l-2.007-2.006c-0.063-0.065-0.139-0.117-0.222-0.152s-0.173-0.053-0.264-0.053-0.18 0.018-0.264 0.053c-0.084 0.035-0.159 0.087-0.222 0.152l-4.091 4.091c-0.065 0.064-0.116 0.141-0.151 0.225s-0.053 0.175-0.053 0.266 0.018 0.182 0.053 0.266c0.035 0.084 0.087 0.161 0.151 0.225l1.999 1.999 0.697-0.697-1.789-1.789 3.669-3.68 1.793 1.799 0.701-0.701zM15.233 15.961l-2.005-2.005c-0.063-0.065-0.139-0.117-0.222-0.152s-0.173-0.053-0.264-0.053-0.18 0.018-0.264 0.053c-0.083 0.035-0.159 0.087-0.222 0.152l-4.103 4.103c-0.274 0.263-0.274 0.697 0 0.971l2.002 2.002 0.704-0.704-1.794-1.787 3.68-3.669 1.787 1.786 0.699-0.698zM7.797 7.078l4.091 4.091c0.274 0.274 0.709 0.274 0.971-0.011l4.091-4.091c0.065-0.062 0.117-0.136 0.152-0.219s0.054-0.171 0.054-0.261h0.011c0-0.171-0.069-0.354-0.206-0.491l-4.091-4.091c-0.064-0.065-0.141-0.117-0.225-0.152s-0.175-0.053-0.266-0.053c-0.091 0-0.182 0.018-0.266 0.053s-0.161 0.087-0.225 0.152l-4.091 4.103c-0.274 0.263-0.274 0.697 0 0.971zM2.003 12.873l4.091 4.091c0.274 0.274 0.709 0.274 0.971 0l4.091-4.091c0.066-0.063 0.119-0.14 0.154-0.224s0.053-0.176 0.051-0.267h0.011c0-0.183-0.069-0.354-0.206-0.491l-4.091-4.091c-0.063-0.065-0.139-0.117-0.222-0.152s-0.173-0.054-0.264-0.054c-0.091 0-0.18 0.018-0.264 0.054s-0.159 0.087-0.222 0.152l-4.103 4.103c-0.274 0.263-0.274 0.697 0 0.971zM9.926 22.877l2.699 2.701 11.013-14.903-0.749-0.749-12.963 12.951z"></path>
</symbol>
<symbol id="icon-spoon" viewBox="0 0 32 32">
<path fill="#fd9222" style="fill: var(--color1, #fd9222)" d="M15.451 14.106c-0.783-0.95-1.177-2.116-1.177-3.282 0-4.324 5.181-8.642 10.362-8.642 2.86 0 5.181 2.321 5.181 5.182 0 5.182-4.318 10.364-8.646 10.364-1.166 0-2.331-0.394-3.281-1.177l-12.758 12.761c-0.675 0.675-1.77 0.675-2.445 0s-0.675-1.771 0-2.445l12.764-12.761z"></path>
</symbol>
<symbol id="icon-arrow-right" viewBox="0 0 48 32">
<path stroke-width="4" stroke-miterlimit="4" stroke-linecap="round" stroke-linejoin="round" d="M3.429 16h41.143M44.572 16l-10.286-10.286M44.572 16l-10.286 10.286"></path>
</symbol>
<symbol id="icon-arrow-right-1" viewBox="0 0 32 32">
<path stroke-width="1.3333" stroke-miterlimit="4" stroke-linecap="round" stroke-linejoin="round" d="M9.143 16h13.714M22.857 16l-3.429-3.429M22.857 16l-3.429 3.429"></path>
<path stroke-width="1.3333" stroke-miterlimit="4" stroke-linecap="round" stroke-linejoin="round" d="M16 30.857c8.205 0 14.857-6.652 14.857-14.857s-6.652-14.857-14.857-14.857c-8.205 0-14.857 6.652-14.857 14.857s6.652 14.857 14.857 14.857z"></path>
</symbol>
<symbol id="icon-play" viewBox="0 0 32 32">
<path d="M10.909 24v-15.273l14.545 7.636-14.545 7.636z"></path>
<path stroke-width="0.7273" stroke-miterlimit="4" stroke-linecap="butt" stroke-linejoin="miter" d="M31.636 16c0 8.636-7.001 15.636-15.636 15.636s-15.636-7.001-15.636-15.636c0-8.636 7.001-15.636 15.636-15.636s15.636 7.001 15.636 15.636z"></path>
</symbol>
</defs>
</svg>
